<?xml version="1.0" standalone="no"?>
<!DOCTYPE svg PUBLIC "-//W3C//DTD SVG 20010904//EN"
 "http://www.w3.org/TR/2001/REC-SVG-20010904/DTD/svg10.dtd">
<svg version="1.0" xmlns="http://www.w3.org/2000/svg"
 width="1181.000000pt" height="1181.000000pt" viewBox="0 0 1181.000000 1181.000000"
 preserveAspectRatio="xMidYMid meet">
<metadata>
Created by potrace 1.14, written by Peter Selinger 2001-2017
</metadata>
<g transform="translate(0.000000,1181.000000) scale(0.100000,-0.100000)"
fill="#000000" stroke="none">
<path d="M6408 11718 c-25 -51 -130 -262 -231 -468 -101 -206 -264 -537 -362
-735 -98 -198 -244 -495 -325 -660 -157 -320 -359 -728 -737 -1495 -129 -261
-248 -503 -265 -538 l-30 -63 -62 6 c-33 3 -72 8 -86 10 -14 2 -50 7 -80 9
-30 3 -82 8 -115 11 -33 3 -76 8 -95 10 -19 3 -55 7 -80 10 -25 2 -70 7 -100
11 -30 3 -68 7 -85 9 -81 8 -163 17 -188 21 -15 2 -51 6 -80 8 -28 3 -79 8
-112 12 -103 11 -118 13 -185 19 -36 3 -76 8 -90 10 -45 6 -124 16 -170 20
-25 2 -65 6 -90 9 -59 7 -119 13 -205 21 -38 3 -81 8 -95 11 -14 2 -47 7 -75
9 -79 7 -158 16 -185 20 -14 2 -56 6 -93 10 -37 3 -76 8 -85 10 -9 1 -53 6
-97 10 -44 3 -93 8 -110 10 -16 2 -57 7 -90 10 -32 4 -66 8 -75 10 -8 2 -50 6
-93 10 -43 3 -87 8 -97 10 -11 2 -50 6 -87 9 -37 3 -77 8 -88 10 -11 2 -56 7
-100 10 -44 4 -91 9 -105 11 -32 5 -97 12 -185 20 -38 4 -81 8 -95 10 -14 2
-52 7 -85 10 -33 3 -94 10 -135 15 -41 5 -102 12 -135 15 -33 3 -78 7 -100 10
-78 9 -131 15 -190 20 -60 6 -87 9 -177 21 -27 3 -48 4 -48 1 0 -5 345 -349
927 -924 291 -288 1498 -1483 2045 -2025 121 -120 217 -221 215 -226 -3 -4
-75 -165 -160 -358 -141 -316 -179 -404 -222 -499 -7 -16 -41 -93 -75 -170
-34 -77 -70 -158 -80 -180 -10 -22 -46 -103 -80 -180 -34 -77 -68 -153 -75
-170 -38 -85 -73 -163 -175 -395 -62 -140 -127 -288 -146 -328 -19 -41 -34
-75 -34 -77 0 -2 -18 -43 -40 -90 -22 -47 -40 -88 -40 -90 0 -3 -14 -35 -31
-72 -30 -66 -66 -146 -94 -208 -111 -254 -213 -483 -236 -533 -16 -35 -29 -65
-29 -67 0 -2 -13 -32 -29 -67 -16 -35 -81 -182 -145 -328 -64 -146 -121 -273
-126 -282 -16 -28 -13 -28 37 -1 27 14 102 53 168 88 66 34 140 74 165 87 25
14 108 58 185 98 77 40 172 90 210 110 39 21 115 61 170 90 55 29 136 72 180
95 44 23 134 70 200 105 152 79 290 152 380 200 39 21 115 61 170 90 55 29
136 72 180 95 132 69 423 223 590 310 61 31 142 74 180 95 39 21 124 66 190
100 66 35 152 80 190 100 39 20 117 62 175 92 58 31 141 75 185 98 44 23 145
76 225 118 80 41 149 79 155 83 15 14 30 11 57 -13 13 -13 67 -61 118 -108 52
-47 104 -94 116 -105 35 -33 112 -104 224 -205 58 -52 110 -99 116 -105 6 -5
52 -48 103 -95 51 -47 108 -98 125 -115 45 -42 197 -180 222 -202 24 -20 208
-189 233 -213 9 -9 61 -56 116 -105 55 -50 109 -99 121 -110 25 -23 70 -64
214 -195 58 -52 112 -102 120 -110 8 -8 40 -37 70 -65 115 -105 276 -251 306
-280 18 -16 45 -41 61 -55 15 -13 60 -53 98 -89 137 -126 171 -158 280 -256
60 -55 115 -104 121 -110 6 -5 53 -48 104 -95 51 -47 102 -93 114 -103 12 -10
64 -58 116 -106 165 -152 187 -171 194 -171 4 0 5 3 3 7 -3 5 -8 28 -11 53 -3
25 -8 56 -11 70 -4 20 -47 276 -71 429 -3 18 -8 43 -10 55 -2 11 -11 62 -19
111 -8 50 -17 101 -19 115 -3 14 -17 97 -31 185 -14 88 -28 171 -31 185 -2 14
-7 41 -10 60 -3 19 -11 71 -19 115 -8 44 -16 96 -19 115 -3 19 -14 87 -25 150
-11 63 -22 129 -25 145 -11 66 -38 232 -42 260 -5 35 -23 140 -30 175 -2 14
-7 39 -9 55 -2 17 -18 109 -34 205 -16 96 -32 191 -35 210 -3 19 -15 91 -27
160 -12 69 -23 136 -25 150 -5 39 -60 364 -68 405 -2 11 -7 43 -10 70 -4 28
-9 57 -11 65 -2 8 -6 31 -9 50 -3 19 -7 44 -10 55 -2 11 -7 43 -11 70 -5 28
-9 52 -10 55 -1 3 -5 30 -9 60 -5 30 -10 64 -12 75 -5 25 -71 425 -80 480 -3
22 -7 44 -7 49 -2 7 51 39 438 264 72 41 200 116 285 165 85 50 195 113 243
141 48 28 96 56 105 61 9 6 44 25 77 44 33 19 103 60 155 91 52 31 102 59 110
63 8 4 29 15 45 26 32 19 306 179 412 240 67 38 403 233 456 265 55 32 291
168 322 186 37 21 369 214 490 285 50 29 182 106 295 171 113 66 214 124 225
131 11 7 27 16 35 20 47 23 181 106 177 109 -2 3 -17 6 -33 9 -51 7 -178 25
-204 30 -14 2 -43 6 -65 10 -23 3 -50 7 -60 9 -11 2 -42 7 -70 10 -84 12 -119
17 -145 21 -14 3 -38 7 -55 9 -16 2 -61 9 -100 15 -38 6 -88 13 -110 16 -22 3
-53 8 -70 10 -16 3 -41 7 -55 9 -14 2 -41 7 -60 10 -19 3 -53 8 -75 11 -22 3
-53 7 -70 10 -16 3 -48 7 -70 10 -22 3 -67 10 -100 15 -33 5 -78 12 -100 15
-22 3 -65 10 -95 15 -30 5 -71 11 -90 14 -19 2 -51 7 -70 10 -42 7 -103 16
-150 22 -19 3 -46 7 -60 9 -14 3 -45 7 -70 11 -25 3 -85 12 -135 20 -49 7
-108 16 -130 19 -22 3 -65 10 -95 15 -30 5 -75 12 -100 15 -25 3 -74 11 -110
16 -82 12 -104 16 -160 24 -62 9 -90 13 -125 19 -52 8 -189 29 -210 31 -32 4
-178 26 -205 31 -53 9 -158 25 -255 39 -73 10 -122 18 -135 20 -8 1 -40 6 -70
10 -30 4 -64 9 -75 11 -11 2 -67 11 -125 19 -58 9 -118 18 -135 20 -16 3 -61
10 -100 15 -38 6 -81 12 -95 15 -14 2 -45 7 -70 10 -81 11 -105 16 -111 23 -3
4 -16 56 -29 115 -27 131 -25 123 -35 172 -4 22 -9 49 -12 60 -7 35 -22 108
-38 180 -8 39 -18 84 -21 100 -2 17 -7 37 -9 45 -2 8 -7 29 -10 47 -3 17 -17
85 -31 150 -25 115 -28 131 -39 183 -2 14 -28 135 -56 270 -28 135 -53 256
-55 268 -3 13 -20 99 -40 190 -19 92 -36 176 -38 187 -3 11 -25 117 -50 235
-25 118 -47 226 -50 240 -2 14 -12 61 -21 105 -9 44 -18 87 -20 95 -7 38 -78
372 -90 431 -14 63 -100 476 -109 522 -4 20 -26 123 -123 587 -14 69 -31 151
-37 183 l-11 57 -47 -92z"/>
</g>
</svg>
